<?xml version="1.0" encoding="UTF-8" standalone="no"?>
<!-- Generator: Adobe Illustrator 12.0.0, SVG Export Plug-In . SVG Version: 6.00 Build 51448)  -->

<svg
   xmlns:dc="http://purl.org/dc/elements/1.1/"
   xmlns:cc="http://creativecommons.org/ns#"
   xmlns:rdf="http://www.w3.org/1999/02/22-rdf-syntax-ns#"
   xmlns:svg="http://www.w3.org/2000/svg"
   xmlns="http://www.w3.org/2000/svg"
   xmlns:xlink="http://www.w3.org/1999/xlink"
   xmlns:sodipodi="http://sodipodi.sourceforge.net/DTD/sodipodi-0.dtd"
   xmlns:inkscape="http://www.inkscape.org/namespaces/inkscape"
   version="1.1"
   id="Layer_1"
   width="765"
   height="990"
   viewBox="0 0 765.00002 989.99992"
   overflow="visible"
   enable-background="new 0 0 499.524 554.546"
   xml:space="preserve"
   inkscape:version="0.48.2 r9819"
   sodipodi:docname="InitialDataPicture.svg"
   style="overflow:visible"><sodipodi:namedview
   pagecolor="#ffffff"
   bordercolor="#666666"
   borderopacity="1"
   objecttolerance="10"
   gridtolerance="10"
   guidetolerance="10"
   inkscape:pageopacity="0"
   inkscape:pageshadow="2"
   inkscape:window-width="1440"
   inkscape:window-height="856"
   id="namedview21"
   showgrid="false"
   showguides="true"
   inkscape:guide-bbox="true"
   inkscape:zoom="0.60625516"
   inkscape:cx="189.78075"
   inkscape:cy="519.83409"
   inkscape:window-x="0"
   inkscape:window-y="0"
   inkscape:window-maximized="0"
   inkscape:current-layer="Layer_1" /><metadata
   id="metadata25"><rdf:RDF><cc:Work
       rdf:about=""><dc:format>image/svg+xml</dc:format><dc:type
         rdf:resource="http://purl.org/dc/dcmitype/StillImage" /><dc:title /></cc:Work></rdf:RDF></metadata><defs
   id="defs23"><linearGradient
   id="linearGradient3979"><stop
     style="stop-color:#7cb347;stop-opacity:1;"
     offset="0"
     id="stop3981" /><stop
     id="stop3983"
     offset="0.04"
     style="stop-color:#7cb347;stop-opacity:1;" /><stop
     id="stop3985"
     offset="0.17"
     style="stop-color:#f4b740;stop-opacity:1;" /><stop
     style="stop-color:#f4b740;stop-opacity:1;"
     offset="0.23"
     id="stop3987" /><stop
     style="stop-color:#e6873b;stop-opacity:1;"
     offset="0.37"
     id="stop3989" /><stop
     id="stop3991"
     offset="0.43000001"
     style="stop-color:#e6873b;stop-opacity:1;" /><stop
     id="stop3993"
     offset="0.56999999"
     style="stop-color:#ce4f4c;stop-opacity:1;" /><stop
     style="stop-color:#ce4f4c;stop-opacity:1;"
     offset="0.63"
     id="stop3995" /><stop
     style="stop-color:#894e97;stop-opacity:1;"
     offset="0.76999998"
     id="stop3997" /><stop
     id="stop3999"
     offset="0.82999998"
     style="stop-color:#894e97;stop-opacity:1;" /><stop
     style="stop-color:#3f9fd9;stop-opacity:1;"
     offset="0.95999998"
     id="stop4001" /><stop
     style="stop-color:#3f9fd9;stop-opacity:1;"
     offset="1"
     id="stop4003" /></linearGradient><linearGradient
   id="linearGradient4047"><stop
     id="stop4049"
     offset="0"
     style="stop-color:#62bb47;stop-opacity:1;" /><stop
     style="stop-color:#62bb47;stop-opacity:1;"
     offset="0.04"
     id="stop4110" /><stop
     style="stop-color:#fcb827;stop-opacity:1;"
     offset="0.17"
     id="stop4051" /><stop
     id="stop4114"
     offset="0.23"
     style="stop-color:#fcb827;stop-opacity:1;" /><stop
     id="stop4053"
     offset="0.37"
     style="stop-color:#f6821f;stop-opacity:1;" /><stop
     style="stop-color:#f6821f;stop-opacity:1;"
     offset="0.43000001"
     id="stop4116" /><stop
     style="stop-color:#e03a3e;stop-opacity:1;"
     offset="0.56999999"
     id="stop4055" /><stop
     id="stop4118"
     offset="0.63"
     style="stop-color:#e03a3e;stop-opacity:1;" /><stop
     id="stop4057"
     offset="0.76999998"
     style="stop-color:#963d97;stop-opacity:1;" /><stop
     style="stop-color:#963d97;stop-opacity:1;"
     offset="0.82999998"
     id="stop4120" /><stop
     id="stop4122"
     offset="0.95999998"
     style="stop-color:#009ddc;stop-opacity:1;" /><stop
     id="stop4059"
     offset="1"
     style="stop-color:#009ddc;stop-opacity:1;" /></linearGradient><linearGradient
   y2="74.758804"
   x2="1093.567"
   y1="-269.9567"
   x1="1093.567"
   gradientUnits="userSpaceOnUse"
   id="linearGradient3231"
   xlink:href="#linearGradient4047"
   inkscape:collect="always" /><linearGradient
   y2="74.758804"
   x2="1093.567"
   y1="-269.9567"
   x1="1093.567"
   gradientUnits="userSpaceOnUse"
   id="linearGradient3874"
   xlink:href="#linearGradient4047"
   inkscape:collect="always" /><filter
   color-interpolation-filters="sRGB"
   height="1"
   width="1"
   y="0"
   x="0"
   inkscape:menu-tooltip="Oversaturate colors which can be fluorescent in real world"
   inkscape:menu="Color"
   inkscape:label="Fluorescence"
   id="filter3876"><feColorMatrix
     values="0"
     type="hueRotate"
     id="feColorMatrix3878" /><feColorMatrix
     values="1"
     type="saturate"
     id="feColorMatrix3880" /><feColorMatrix
     values="2 -1 0 0 0 0 2 -1 0 0 -1 0 2 0 0 0 0 0 1 0 "
     type="matrix"
     id="feColorMatrix3882" /></filter><linearGradient
   gradientUnits="userSpaceOnUse"
   y2="299.23227"
   x2="855.26691"
   y1="-39.318184"
   x1="855.26691"
   id="linearGradient3039"
   xlink:href="#linearGradient4047"
   inkscape:collect="always" /><filter
   color-interpolation-filters="sRGB"
   height="1"
   width="1"
   y="0"
   x="0"
   inkscape:menu-tooltip="Basic specular bevel to use for building textures"
   inkscape:menu="Bevels"
   inkscape:label="Combined lighting"
   id="filter3837"><feColorMatrix
     values="0"
     type="hueRotate"
     id="feColorMatrix3839" /><feColorMatrix
     values="1"
     type="saturate"
     id="feColorMatrix3841" /><feColorMatrix
     result="fbSourceGraphic"
     values="2 -1 0 0 0 0 2 -1 0 0 -1 0 2 0 0 0 0 0 1 0 "
     type="matrix"
     id="feColorMatrix3843" /><feColorMatrix
     id="feColorMatrix3845"
     values="0 0 0 -1 0 0 0 0 -1 0 0 0 0 -1 0 0 0 0 1 0"
     in="fbSourceGraphic"
     result="fbSourceGraphicAlpha" /><feGaussianBlur
     result="result0"
     in="fbSourceGraphic"
     stdDeviation="6"
     id="feGaussianBlur3847" /><feDiffuseLighting
     result="result5"
     surfaceScale="4"
     diffuseConstant="1"
     lighting-color="#ffffff"
     id="feDiffuseLighting3849"><feDistantLight
       azimuth="235"
       elevation="45"
       id="feDistantLight3851" /></feDiffuseLighting><feComposite
     operator="arithmetic"
     result="fbSourceGraphic"
     in="result5"
     k1="1.4"
     in2="fbSourceGraphic"
     id="feComposite3853"
     k2="0"
     k3="0"
     k4="0" /><feGaussianBlur
     stdDeviation="6"
     in="fbSourceGraphic"
     result="result0"
     id="feGaussianBlur3855" /><feSpecularLighting
     in="result0"
     result="result1"
     lighting-color="#ffffff"
     surfaceScale="4"
     specularConstant="1"
     specularExponent="25"
     id="feSpecularLighting3857"><feDistantLight
       elevation="45"
       azimuth="235"
       id="feDistantLight3859" /></feSpecularLighting><feComposite
     in="fbSourceGraphic"
     result="result4"
     operator="arithmetic"
     k2="1"
     k3="1"
     in2="result1"
     id="feComposite3861"
     k1="0"
     k4="0" /><feComposite
     in="result4"
     result="result2"
     operator="in"
     in2="fbSourceGraphic"
     id="feComposite3863" /></filter><linearGradient
   y2="299.23227"
   x2="855.26691"
   y1="-39.318184"
   x1="855.26691"
   gradientUnits="userSpaceOnUse"
   id="linearGradient4020"
   xlink:href="#linearGradient4047"
   inkscape:collect="always" /><linearGradient
   y2="299.23227"
   x2="855.26691"
   y1="-39.318184"
   x1="855.26691"
   gradientUnits="userSpaceOnUse"
   id="linearGradient4157"
   xlink:href="#linearGradient4047"
   inkscape:collect="always" /><linearGradient
   y2="299.23227"
   x2="855.26691"
   y1="-39.318184"
   x1="855.26691"
   gradientUnits="userSpaceOnUse"
   id="linearGradient4163"
   xlink:href="#linearGradient4047"
   inkscape:collect="always" /><linearGradient
   y2="299.23227"
   x2="855.26691"
   y1="-39.318184"
   x1="855.26691"
   gradientUnits="userSpaceOnUse"
   id="linearGradient4165"
   xlink:href="#linearGradient4047"
   inkscape:collect="always" /><linearGradient
   y2="299.23227"
   x2="855.26691"
   y1="-39.318184"
   x1="855.26691"
   gradientUnits="userSpaceOnUse"
   id="linearGradient4301"
   xlink:href="#linearGradient4047"
   inkscape:collect="always" /><linearGradient
   y2="299.23227"
   x2="855.26691"
   y1="-39.318184"
   x1="855.26691"
   gradientUnits="userSpaceOnUse"
   id="linearGradient4303"
   xlink:href="#linearGradient4047"
   inkscape:collect="always" /><linearGradient
   gradientUnits="userSpaceOnUse"
   y2="218.93387"
   x2="1393.5184"
   y1="-124.84238"
   x1="1393.5184"
   id="linearGradient4315"
   xlink:href="#linearGradient4047"
   inkscape:collect="always" /><linearGradient
   y2="218.93387"
   x2="1393.5184"
   y1="-124.84238"
   x1="1393.5184"
   gradientUnits="userSpaceOnUse"
   id="linearGradient4333"
   xlink:href="#linearGradient4047"
   inkscape:collect="always" /><linearGradient
   y2="218.93387"
   x2="1393.5184"
   y1="-124.84238"
   x1="1393.5184"
   gradientUnits="userSpaceOnUse"
   id="linearGradient4356"
   xlink:href="#linearGradient4047"
   inkscape:collect="always" /><linearGradient
   inkscape:collect="always"
   xlink:href="#linearGradient4047"
   id="linearGradient29269"
   gradientUnits="userSpaceOnUse"
   x1="1393.5184"
   y1="-124.84238"
   x2="1393.5184"
   y2="218.93387" /><linearGradient
   inkscape:collect="always"
   xlink:href="#linearGradient4047"
   id="linearGradient29277"
   gradientUnits="userSpaceOnUse"
   x1="1393.5184"
   y1="-124.84238"
   x2="1393.5184"
   y2="218.93387" /><linearGradient
   inkscape:collect="always"
   xlink:href="#linearGradient4047"
   id="linearGradient29553"
   gradientUnits="userSpaceOnUse"
   x1="1393.5184"
   y1="-124.84238"
   x2="1393.5184"
   y2="218.93387" /><linearGradient
   inkscape:collect="always"
   xlink:href="#linearGradient4047"
   id="linearGradient29561"
   gradientUnits="userSpaceOnUse"
   x1="1393.5184"
   y1="-124.84238"
   x2="1393.5184"
   y2="218.93387" /><linearGradient
   inkscape:collect="always"
   xlink:href="#linearGradient4047"
   id="linearGradient29579"
   gradientUnits="userSpaceOnUse"
   x1="1393.5184"
   y1="-124.84238"
   x2="1393.5184"
   y2="218.93387" /><linearGradient
   inkscape:collect="always"
   xlink:href="#linearGradient4047"
   id="linearGradient29585"
   gradientUnits="userSpaceOnUse"
   x1="1393.5184"
   y1="-124.84238"
   x2="1393.5184"
   y2="218.93387" /><linearGradient
   inkscape:collect="always"
   xlink:href="#linearGradient4047"
   id="linearGradient29719"
   gradientUnits="userSpaceOnUse"
   x1="1393.5184"
   y1="-124.84238"
   x2="1393.5184"
   y2="218.93387" /><linearGradient
   inkscape:collect="always"
   xlink:href="#linearGradient4047"
   id="linearGradient29869"
   gradientUnits="userSpaceOnUse"
   x1="1393.5184"
   y1="-124.84238"
   x2="1393.5184"
   y2="218.93387" /><linearGradient
   inkscape:collect="always"
   xlink:href="#linearGradient4047"
   id="linearGradient29891"
   gradientUnits="userSpaceOnUse"
   x1="1393.5184"
   y1="-124.84238"
   x2="1393.5184"
   y2="218.93387" /><linearGradient
   inkscape:collect="always"
   xlink:href="#linearGradient4047"
   id="linearGradient30061"
   gradientUnits="userSpaceOnUse"
   x1="1393.5184"
   y1="-124.84238"
   x2="1393.5184"
   y2="218.93387" /><linearGradient
   inkscape:collect="always"
   xlink:href="#linearGradient4047"
   id="linearGradient30073"
   gradientUnits="userSpaceOnUse"
   x1="1393.5184"
   y1="-124.84238"
   x2="1393.5184"
   y2="218.93387" />

<filter
   id="filter3900"
   inkscape:label="Fluorescence"
   inkscape:menu="Color"
   inkscape:menu-tooltip="Oversaturate colors which can be fluorescent in real world"
   x="0"
   y="0"
   width="1"
   height="1"
   color-interpolation-filters="sRGB"><feColorMatrix
     id="feColorMatrix3902"
     type="hueRotate"
     values="0" /><feColorMatrix
     id="feColorMatrix3904"
     type="saturate"
     values="1" /><feColorMatrix
     id="feColorMatrix3906"
     type="matrix"
     values="2 -1 0 0 0 0 2 -1 0 0 -1 0 2 0 0 0 0 0 1 0 " /></filter></defs>
<path
   inkscape:connector-curvature="0"
   style="font-size:500px;font-style:normal;font-variant:normal;font-weight:normal;font-stretch:normal;line-height:125%;letter-spacing:39.39240645999999657px;word-spacing:0px;opacity:1;fill:#a0a0a0;fill-opacity:1;stroke:none;font-family:Georgia;-inkscape-font-specification:Georgia"
   d="M -1319.6875,1900.5312 L -1319.6875,1918.125 L -1270.8438,1966.9688 L -1270.8438,2204.4375 C -1270.8439,2210.8831 -1271.9988,2216.1807 -1274.3125,2220.3125 C -1276.461,2224.4443 -1280.042,2227.6015 -1285,2229.75 C -1287.975,2231.0722 -1293.2415,2232.1425 -1300.8438,2232.9688 C -1308.281,2233.7951 -1314.0024,2234.3569 -1317.9688,2234.6875 L -1317.9688,2252.2812 L -1236.7188,2333.5312 L -1085.75,2333.5312 L -1085.75,2315.9375 L -1136.8125,2264.8438 L -1136.8125,2179.0938 L -1097.4062,2179.0938 C -1080.5488,2179.0939 -1064.6024,2176.9222 -1049.5625,2172.625 C -1034.5231,2168.3282 -1020.7169,2161.5678 -1008.1562,2152.3125 C -995.43065,2143.0575 -985.51315,2131.3919 -978.40625,2117.3438 C -971.13455,2103.1307 -967.5003,2086.8766 -967.5,2068.5312 C -967.5003,2042.2535 -977.7566,2021.2635 -998.25,2005.5625 L -1063.4375,1940.3438 C -1067.8067,1934.5009 -1073.1536,1929.1509 -1079.4688,1924.3125 C -1099.7972,1908.4468 -1126.339,1900.5316 -1159.0625,1900.5312 L -1319.6875,1900.5312 z M -973.71875,1975.1562 L -973.71875,1989 L -936.625,2026.0938 L -936.625,2214.5938 C -936.625,2219.6719 -937.52095,2223.8386 -939.34375,2227.0938 C -941.03655,2230.3489 -943.8438,2232.8386 -947.75,2234.5312 C -950.0938,2235.5729 -954.2604,2236.4114 -960.25,2237.0625 C -966.1094,2237.7135 -970.59385,2238.177 -973.71875,2238.4375 L -973.71875,2252.2812 L -892.5,2333.5312 L -775.3125,2333.5312 L -775.3125,2319.6562 L -813.78125,2281.1875 L -813.78125,2207.9375 L -808.0625,2207.9375 L -778.40625,2252.2812 L -697.1875,2333.5312 L -622.5625,2333.5312 L -622.5625,2319.6562 L -703.8125,2238.4375 L -714.78125,2237.0938 C -723.05325,2225.7939 -732.9134,2212.5043 -744.625,2197 C -734.7294,2194.1356 -725.7033,2190.6928 -717.5,2186.6562 C -709.297,2182.4898 -702.26585,2177.5992 -696.40625,2172 C -690.02615,2166.0106 -685.1929,2158.922 -681.9375,2150.7188 C -678.6826,2142.5159 -677.0627,2133.0835 -677.0625,2122.4062 C -677.0627,2110.5576 -679.46375,2100.4586 -684.28125,2092.125 C -689.09905,2083.6617 -695.5523,2076.8336 -703.625,2071.625 L -767.34375,2007.875 C -771.92465,2000.7832 -777.74885,1994.9527 -784.84375,1990.375 C -793.17735,1985.0367 -802.49485,1981.1878 -812.78125,1978.8438 C -823.06775,1976.3701 -834.06255,1975.1565 -845.78125,1975.1562 L -973.71875,1975.1562 z M -655.59375,1975.1562 L -655.59375,1989 L -616.15625,2028.4375 L -616.15625,2214.5938 C -616.15625,2219.4114 -616.9948,2223.3751 -618.6875,2226.5 C -620.25,2229.6251 -623.11455,2232.1719 -627.28125,2234.125 C -629.23435,2235.0365 -633.45855,2235.9636 -639.96875,2236.875 C -646.47925,2237.6563 -651.68755,2238.177 -655.59375,2238.4375 L -655.59375,2252.2812 L -574.375,2333.5312 L -344.28125,2333.5312 L -339.9375,2266.2188 L -272.65625,2333.5312 L -42.5625,2333.5312 L -38.65625,2273.2188 L 21.65625,2333.5312 L 135.3125,2333.5312 L 135.3125,2319.6562 L 87.4375,2271.7812 L 85.90625,2252.4688 L 85.90625,2137.9375 L 172.65625,2255.0312 L 253.875,2336.25 L 270.875,2336.25 L 270.875,2133.3438 C 270.8747,2119.1513 271.65601,2107.4325 273.21875,2098.1875 C 274.91126,2088.943 278.09344,2082.693 282.78125,2079.4375 C 286.03619,2077.3544 291.44758,2075.3284 299,2073.375 C 306.55181,2071.4221 312.13517,2070.3805 315.78125,2070.25 L 315.78125,2056.375 L 234.5625,1975.1562 L 121.875,1975.1562 L 121.875,1989 L 169.15625,2036.3125 L 170.6875,2054.625 L 170.6875,2157.5625 L 96.0625,2056.375 L 14.84375,1975.1562 L -64.28125,1975.1562 L -64.28125,1989 L -14.28125,2039 L -14.28125,2173.375 C -14.28125,2191.4741 -15.1198,2204.323 -16.8125,2211.875 C -18.5052,2219.297 -21.6302,2224.823 -26.1875,2228.4688 C -28.2708,2230.2916 -33.4792,2232.3751 -41.8125,2234.7188 C -45.74038,2235.7621 -49.109399,2236.5762 -51.96875,2237.1875 L -100.1875,2189 L -100.1875,2136.6562 L -165,2071.8125 L -148.03125,2071.8125 L -128.90625,2072.1875 L -123.375,2072.6562 L -72.84375,2123.1875 L -58.1875,2123.1875 L -58.1875,2056.375 L -139.4375,1975.1562 L -353.875,1975.1562 L -353.875,1989 L -314.4375,2028.4375 L -314.4375,2214.5938 C -314.4375,2219.4114 -315.27605,2223.3751 -316.96875,2226.5 C -318.53135,2229.6251 -321.3959,2232.1719 -325.5625,2234.125 C -327.5157,2235.0365 -331.7396,2235.9636 -338.25,2236.875 C -344.08399,2237.5751 -348.81967,2238.0618 -352.5625,2238.3438 L -401.90625,2189 L -401.90625,2136.6562 L -466.71875,2071.8125 L -449.75,2071.8125 L -430.625,2072.1875 L -425.09375,2072.6562 L -374.5625,2123.1875 L -359.90625,2123.1875 L -359.90625,2056.375 L -441.15625,1975.1562 L -655.59375,1975.1562 z M -1136.8125,2002.0938 L -1110.25,2002.0938 C -1110.4385,2008.263 -1111.3332,2015.1649 -1112.9375,2022.75 C -1114.7557,2031.179 -1118.4748,2039.3485 -1124.0938,2047.2812 C -1127.3707,2052.1002 -1131.6248,2056.4554 -1136.8125,2060.375 L -1136.8125,2002.0938 z M -813.78125,2072.1875 L -811,2072.1875 C -811.8135,2074.3291 -812.74495,2076.3859 -813.78125,2078.375 L -813.78125,2072.1875 z M -791.875,2161.4688 L -771.34375,2189.25 C -771.35365,2189.2524 -771.3651,2189.2477 -771.375,2189.25 C -778.9596,2179.0151 -785.9794,2169.4701 -791.875,2161.4688 z M -493.3125,2197.7812 L -463.8125,2197.7812 L -452.625,2208.9688 C -457.1332,2216.6065 -461.5038,2222.6628 -465.75,2227.0938 C -467.9638,2229.4375 -471.75545,2231.3178 -477.09375,2232.75 C -482.30235,2234.0521 -487.3647,2234.9792 -492.3125,2235.5 C -492.6285,2235.5342 -492.9869,2235.5619 -493.3125,2235.5938 L -493.3125,2197.7812 z M -191.59375,2197.7812 L -162.09375,2197.7812 L -150.90625,2208.9688 C -155.41445,2216.6065 -159.78495,2222.6628 -164.03125,2227.0938 C -166.24495,2229.4375 -170.0367,2231.3178 -175.375,2232.75 C -180.5835,2234.0521 -185.64605,2234.9792 -190.59375,2235.5 C -190.90985,2235.5342 -191.26825,2235.5619 -191.59375,2235.5938 L -191.59375,2197.7812 z"
   transform="matrix(0.34861844,0,0,0.34861844,557.49013,-561.81467)"
   id="path29239" /><text
   transform="matrix(0.35399557,0,0,0.35399557,-366.72259,145.29565)"
   sodipodi:linespacing="125%"
   id="text29263"
   y="220.58624"
   x="1288.9446"
   style="font-size:40px;font-style:normal;font-variant:normal;font-weight:bold;font-stretch:normal;line-height:125%;letter-spacing:0px;word-spacing:0px;fill:url(#linearGradient29277);fill-opacity:1;stroke:none;font-family:Impact;-inkscape-font-specification:Impact Bold;"
   xml:space="preserve"><tspan
     style="font-size:500px;font-style:normal;font-variant:normal;font-weight:normal;font-stretch:normal;letter-spacing:39.39240645999999657px;fill:url(#linearGradient29277);fill-opacity:1;font-family:Georgia;-inkscape-font-specification:Georgia;"
     y="220.58624"
     x="1288.9446"
     id="tspan29265"
     sodipodi:role="line">P<tspan
   id="tspan29267"
   style="font-size:393.92407227000001058px;letter-spacing:39.39240645999999657px;fill:url(#linearGradient29277);">REEN</tspan></tspan></text>



































<g
   id="g5265"
   style="font-size:40px;font-style:normal;font-variant:normal;font-weight:bold;font-stretch:normal;line-height:125%;letter-spacing:0px;word-spacing:0px;fill:#d51f1f;fill-opacity:0.39380529;stroke:none;font-family:Impact;-inkscape-font-specification:Impact Bold"
   transform="matrix(1.0000011,0,0,1,-1016.8655,-96.344069)" /><text
   transform="translate(0,440.00002)"
   sodipodi:linespacing="125%"
   id="text3787"
   y="116.32226"
   x="926.28729"
   style="font-size:40px;font-style:normal;font-variant:normal;font-weight:bold;font-stretch:normal;line-height:125%;letter-spacing:0px;word-spacing:0px;fill:#000000;fill-opacity:1;stroke:none;font-family:Impact;-inkscape-font-specification:Impact Bold"
   xml:space="preserve"><tspan
     id="tspan3789"
     sodipodi:role="line"
     x="926.28729"
     y="116.32226" /></text>
















































<text
   xml:space="preserve"
   style="font-size:40px;font-style:normal;font-variant:normal;font-weight:bold;font-stretch:normal;line-height:125%;letter-spacing:0px;word-spacing:0px;fill:#000000;fill-opacity:1;stroke:none;font-family:Impact;-inkscape-font-specification:Impact Bold"
   x="526.18109"
   y="768.65326"
   id="text3056"
   sodipodi:linespacing="125%"
   transform="translate(-177.54891,15.162886)"><tspan
     sodipodi:role="line"
     x="526.18109"
     y="768.65326"
     id="tspan3064"
     style="font-size:24px;font-style:normal;font-variant:normal;font-weight:bold;font-stretch:normal;font-family:Helvetica Neue;-inkscape-font-specification:Helvetica Neue">Bracing Effect, LLC</tspan><tspan
     sodipodi:role="line"
     x="526.18109"
     y="798.63715"
     style="font-size:24px;font-style:normal;font-variant:normal;font-weight:normal;font-stretch:normal;font-family:Helvetica Neue;-inkscape-font-specification:Helvetica Neue"
     id="tspan3120">Send feedback to:</tspan><tspan
     sodipodi:role="line"
     x="526.18109"
     y="828.63715"
     id="tspan3066"
     style="font-size:24px;font-style:normal;font-variant:normal;font-weight:normal;font-stretch:normal;font-family:Helvetica Neue;-inkscape-font-specification:Helvetica Neue">support@bracingeffect.com</tspan><tspan
     sodipodi:role="line"
     x="526.18109"
     y="858.63715"
     style="font-size:24px;font-style:normal;font-variant:normal;font-weight:normal;font-stretch:normal;font-family:Helvetica Neue;-inkscape-font-specification:Helvetica Neue"
     id="tspan3124">www.bracingeffect.com/preen</tspan></text>
<text
   xml:space="preserve"
   style="font-size:40px;font-style:normal;font-variant:normal;font-weight:bold;font-stretch:normal;line-height:150%;letter-spacing:0px;word-spacing:0px;fill:#000000;fill-opacity:1;stroke:none;font-family:Impact;-inkscape-font-specification:Impact Bold"
   x="82.473526"
   y="339.79092"
   id="text3068"
   sodipodi:linespacing="150%"
   transform="matrix(0.92098049,0,0,0.92098049,54.781972,7.3302746)"><tspan
     sodipodi:role="line"
     id="tspan3070"
     x="82.473526"
     y="339.79092"
     style="font-size:40px;font-style:normal;font-variant:normal;font-weight:bold;font-stretch:normal;line-height:150%;font-family:Helvetica Neue;-inkscape-font-specification:Helvetica Neue Bold">Welcome to Preen!</tspan><tspan
     sodipodi:role="line"
     x="82.473526"
     y="390.1828"
     style="font-size:32px;font-style:normal;font-variant:normal;font-weight:normal;font-stretch:normal;line-height:150%;font-family:Helvetica Neue;-inkscape-font-specification:Helvetica Neue"
     id="tspan3104">For best results:</tspan><tspan
     sodipodi:role="line"
     x="82.473526"
     y="438.1828"
     style="font-size:32px;font-style:normal;font-variant:normal;font-weight:normal;font-stretch:normal;line-height:150%;font-family:Helvetica Neue;-inkscape-font-specification:Helvetica Neue"
     id="tspan3094">• Take well lit pictures</tspan><tspan
     sodipodi:role="line"
     x="82.473526"
     y="486.1828"
     style="font-size:32px;font-style:normal;font-variant:normal;font-weight:normal;font-stretch:normal;line-height:150%;font-family:Helvetica Neue;-inkscape-font-specification:Helvetica Neue"
     id="tspan3112">• Crop as close to the text as possible</tspan></text>
</svg>