<?xml version="1.0" encoding="UTF-8" standalone="no"?>
<!-- Created with Inkscape (http://www.inkscape.org/) -->

<svg
   xmlns:dc="http://purl.org/dc/elements/1.1/"
   xmlns:cc="http://creativecommons.org/ns#"
   xmlns:rdf="http://www.w3.org/1999/02/22-rdf-syntax-ns#"
   xmlns:svg="http://www.w3.org/2000/svg"
   xmlns="http://www.w3.org/2000/svg"
   xmlns:sodipodi="http://sodipodi.sourceforge.net/DTD/sodipodi-0.dtd"
   xmlns:inkscape="http://www.inkscape.org/namespaces/inkscape"
   width="65"
   height="104"
   id="svg2"
   version="1.1"
   inkscape:version="0.91 r13725"
   sodipodi:docname="Parsnip Logo.svg"
   inkscape:export-filename="/Users/ratface/Sites/Parsnip.github.io/images/parsnip-logo_2x.png"
   inkscape:export-xdpi="180"
   inkscape:export-ydpi="180">
  <defs
     id="defs4" />
  <sodipodi:namedview
     id="base"
     pagecolor="#c4c4c4"
     bordercolor="#666666"
     borderopacity="1.0"
     inkscape:pageopacity="0"
     inkscape:pageshadow="2"
     inkscape:zoom="4.5985916"
     inkscape:cx="45.832978"
     inkscape:cy="55.227564"
     inkscape:document-units="px"
     inkscape:current-layer="layer2"
     showgrid="false"
     inkscape:window-width="1440"
     inkscape:window-height="855"
     inkscape:window-x="0"
     inkscape:window-y="0"
     inkscape:window-maximized="0"
     showguides="true"
     inkscape:guide-bbox="true" />
  <metadata
     id="metadata7">
    <rdf:RDF>
      <cc:Work
         rdf:about="">
        <dc:format>image/svg+xml</dc:format>
        <dc:type
           rdf:resource="http://purl.org/dc/dcmitype/StillImage" />
        <dc:title></dc:title>
      </cc:Work>
    </rdf:RDF>
  </metadata>
  <g
     inkscape:groupmode="layer"
     id="layer2"
     inkscape:label="Splash_Logo"
     style="display:inline"
     transform="translate(0,-948.36218)">
    <g
       id="g4384"
       transform="matrix(0.8666667,0,0,0.8666667,4.9737544e-8,139.88158)">
      <path
         inkscape:connector-curvature="0"
         style="fill:#002000;fill-opacity:1;stroke:none"
         d="m 16.526776,945.32736 c 0,0 -0.555849,1.57334 0.07993,2.86442 c 0.564759,1.14684 1.819358,1.6646 2.106153,1.77042 c -0.471826,0.71934 -0.984185,1.38202 -1.528625,1.93433 C 11.485088,957.67785 1.7195041,964.63877 3.0273403,971.4643 c 0.7930554,-3.02311 3.3757824,-6.45902 6.6337654,-9.23084 c 1.3093523,-2.07053 7.9014523,-7.61773 10.2124933,-10.56633 c 0.516901,-0.6595 0.993544,-2.05375 1.403458,-3.63997 c 0.367899,0.29672 1.62621,1.22002 3.062477,1.12899 c 1.70774,-0.10831 3.006024,-1.61445 3.006024,-1.61445 c 0,0 -1.48263,-1.41278 -3.19039,-1.30451 c -1.32002,0.0836 -2.384687,1.04235 -2.802469,1.47827 c 0.820166,-3.28981 1.353864,-7.23839 1.353854,-7.2384 c 0,0 -1.363594,5.25118 -3.753695,9.1006 c 0.140641,-0.56158 0.29662,-1.58227 -0.140033,-2.46898 c -0.635744,-1.29102 -2.286051,-1.78131 -2.286051,-1.78131 z m 18.070581,-10.40661 c 0,0 -1.134029,2.46434 -0.261392,4.55836 c 0.748918,1.79724 2.723487,2.73221 3.270987,2.96234 c -2.391909,2.83232 -4.442692,5.23318 -5.207188,5.85519 C 23.66746,955.7877 0.04162063,962.30288 3.2857301,978.73603 c 0.6926945,-4.25395 4.3251275,-8.35751 5.6219858,-9.64536 C 13.644651,961.39153 26.271049,956.29032 31.866287,951.9116 c 1.116968,-0.87399 2.234948,-2.24333 3.40566,-3.91654 c 0.198068,0.40844 0.739981,1.34983 1.690608,1.75587 c 1.224297,0.5229 2.651376,-0.0689 2.651376,-0.0689 c 0,0 -0.535524,-1.49887 -1.75987,-2.0218 c -0.880001,-0.37586 -1.866287,-0.15037 -2.358076,0.01 c 1.31978,-1.91773 2.711821,-4.20266 4.258015,-6.60498 c 0.292614,0.38843 1.42209,1.75668 3.021207,2.04288 c 1.866367,0.33399 3.652718,-0.93996 3.652718,-0.93996 c 0,0 -1.216804,-1.91907 -3.083181,-2.25307 c -1.438514,-0.25743 -2.832381,0.49617 -3.400159,0.85632 c 1.252429,-1.93718 2.601629,-3.93884 4.098402,-5.87552 c -1.931055,2.19594 -4.131303,4.8186 -6.137148,7.19562 c 0.248904,-0.77926 0.664058,-2.52973 0.01003,-4.10024 c -0.872627,-2.09402 -3.318071,-3.07034 -3.318071,-3.07034 z M 9.4625424,969.48458 c -0.1554961,0.15126 -0.3037511,0.30062 -0.4409691,0.44684 c -3.8740985,4.12629 -7.3009859,10.15105 -3.621051,14.55109 c 1.307181,1.56299 2.1671548,2.82946 2.810232,2.91849 c 0.6432057,0.0892 2.1163327,-0.54933 2.8118777,-1.21903 c 0.695593,-0.66966 1.59721,-2.13119 1.417603,-2.72413 c -0.179519,-0.59284 -1.589118,-1.65074 -2.106607,-2.68116 c -1.5178572,-3.0227 0.336346,-6.28547 1.826642,-8.19727 c 3.501391,-4.42497 13.602017,-10.19636 21.735515,-14.99364 c 5.864434,-3.45896 10.538663,-6.98701 15.336926,-11.28828 c 0.219965,0.44777 1.053533,1.96179 2.51591,2.47823 c 1.721443,0.60798 3.652769,-0.41292 3.652769,-0.41292 c 0,0 -0.894505,-1.92002 -2.615877,-2.52796 c -1.243285,-0.43906 -2.567669,-0.0725 -3.214122,0.16479 c 1.682532,-1.51915 3.381746,-3.13709 5.15921,-4.88142 c 0.297453,0.37136 2.207835,2.63871 4.789988,2.88612 c 2.810915,0.26932 5.326093,-1.99082 5.326093,-1.99082 c -8e-5,-7e-5 -2.055567,-2.54552 -4.866482,-2.81485 c -2.003338,-0.19194 -3.841949,0.82308 -4.737598,1.42432 c 1.863398,-1.83911 3.806671,-3.81565 5.909423,-5.97389 c -2.497724,2.21238 -5.331068,4.55455 -8.28453,6.86614 c 0.485399,-0.62065 1.444251,-2.06812 1.378018,-3.70558 c -0.08827,-2.18328 -1.972192,-3.87842 -1.972192,-3.87842 c 0,0 -1.847689,1.85103 -1.759378,4.03431 c 0.07974,1.97028 1.693907,3.52743 2.011412,3.81508 c -2.693916,2.09972 -5.47815,4.16979 -8.197193,6.0879 c 0.189522,-0.38936 0.411944,-1.01995 0.275084,-1.65002 c -0.221048,-1.01836 -1.296699,-1.64955 -1.296739,-1.6496 c 10e-5,1.1e-4 -0.666786,1.01394 -0.445647,2.03238 c 0.165036,0.76016 0.778508,1.30985 1.078669,1.54026 c -4.764064,3.3432 -9.293091,6.20374 -12.726727,7.90786 c -3.596817,1.78509 -16.927664,8.74849 -21.7502596,13.43518 z m -3.6821896,16.29645 c -2.8727902,2.69717 -5.28088729,7.21991 -2.6303171,12.13562 c 5.1966949,1.94865 9.6724393,-3.06827 9.6724393,-3.06827 c 0,0 -4.5686997,5.52512 -9.1042177,4.00354 c 0.4002732,0.59951 0.8740811,1.20588 1.4390025,1.81188 c 6.2359612,6.6888 15.6935322,13.6328 15.6935732,13.6329 c 3.598145,3.8593 7.898169,7.5299 11.340712,10.2765 c 4.095748,1.5092 8.102749,-1.1492 8.102749,-1.1492 c 0,0 -3.39738,2.6882 -6.451682,2.4507 c 6.876656,5.2979 17.646353,12.2588 17.646353,12.2588 c 0,0 1.900571,1.0313 4.803308,3.0346 c 2.734481,0.073 4.350058,-1.4472 4.350058,-1.4472 c 0,0 -1.550879,1.7647 -3.041783,2.3714 c 1.151232,0.828 2.414288,1.7782 3.755403,2.8591 c 3.870607,3.1196 13.644046,7.3432 13.644046,7.3432 c -8.755355,-9.3911 -9.461382,-11.8919 -12.748508,-17.3344 c -2.603639,-4.311 -5.79448,-8.2505 -7.566518,-10.3293 c -0.432677,1.5012 -1.640142,2.61 -1.640142,2.61 c 0,0 0.934517,-1.4347 1.00046,-3.3537 c -0.177686,-0.2034 -0.345129,-0.3934 -0.457936,-0.5199 c -0.553658,1.7629 -2.484403,3.8795 -2.484403,3.8795 c 0,0 1.918958,-2.538 1.716648,-5.0575 c -1.054486,-1.8354 -3.989231,-6.7968 -8.756931,-13.6949 c -0.62899,2.2644 -2.886256,3.87 -2.886256,3.87 c 0,0 2.15402,-1.7633 2.247968,-4.7846 c -0.343755,-0.4926 -0.687169,-0.9887 -1.047815,-1.4976 c -1.060344,4.5401 -5.798509,7.5589 -5.798509,7.5589 c 0,0 4.468528,-3.3607 5.09817,-8.5497 c -4.572296,-6.37589 -9.075033,-11.35434 -10.513567,-12.90591 c -0.759039,1.39183 -2.508266,2.71366 -2.508266,2.71366 c 0,0 1.383966,-1.87793 1.915106,-3.46488 c -0.369333,-0.85891 -2.108891,-4.52329 -6.718365,-9.46746 c -4.72218,-5.06507 -10.618086,-2.85389 -12.305681,-1.47128 c 1.599461,-0.50705 2.671461,-0.98638 3.734603,0.15397 c 1.165161,1.24975 -0.209212,4.42033 -2.896222,6.92543 c -2.6870097,2.50513 -5.8922469,3.75315 -7.1159367,2.40893 c -1.2238614,-1.34437 -0.3640471,-2.92258 0.5124484,-4.20283 z m 0.2833614,0.0931 c 0,0 -1.4424109,2.2432 -0.5218141,3.28254 c 0.9205547,1.03927 3.4575353,0.0636 5.2201349,-1.60622 c -3.1881719,1.56493 -3.8904649,0.918 -4.4761791,0.29624 C 5.7001426,987.2249 6.0637142,985.87411 6.0637142,985.87411 Z"
         id="path4364" />
      <path
         id="path4360"
         d="m 14.52062,944.82591 c 0,0 -0.555849,1.57335 0.07994,2.86442 c 0.564759,1.14685 1.819358,1.6646 2.106153,1.77042 c -0.471826,0.71934 -0.984185,1.38203 -1.528625,1.93434 C 9.4789327,957.1764 -0.28665176,964.13732 1.0211845,970.96285 c 0.7930554,-3.02311 3.3757824,-6.45902 6.6337654,-9.23084 c 1.3093527,-2.07052 7.9014521,-7.61773 10.2124931,-10.56633 c 0.516902,-0.65949 0.993544,-2.05375 1.403458,-3.63996 c 0.367899,0.29671 1.62621,1.22003 3.062477,1.12899 c 1.70774,-0.10832 3.006024,-1.61445 3.006024,-1.61445 c 0,0 -1.48263,-1.41278 -3.19039,-1.30452 c -1.32002,0.0837 -2.384687,1.04235 -2.802469,1.47828 c 0.820167,-3.28981 1.353864,-7.23839 1.353854,-7.23841 c 0,0 -1.363594,5.25119 -3.753695,9.1006 c 0.140641,-0.56158 0.29662,-1.58227 -0.140032,-2.46897 c -0.635745,-1.29102 -2.286052,-1.78132 -2.286052,-1.78132 z m 18.070582,-10.4066 c 0,0 -1.13403,2.46433 -0.261392,4.55835 c 0.748918,1.79724 2.723486,2.73221 3.270986,2.96234 c -2.391909,2.83232 -4.442692,5.23318 -5.207188,5.85519 c -8.732304,7.49106 -32.3581431,14.00624 -29.1140337,30.43939 c 0.6926945,-4.25396 4.3251275,-8.3575 5.6219858,-9.64536 C 11.638495,960.89008 24.264893,955.78886 29.860131,951.41015 c 1.116968,-0.874 2.234948,-2.24334 3.405661,-3.91654 c 0.198067,0.40844 0.73998,1.34984 1.690607,1.75587 c 1.224297,0.5229 2.651376,-0.0689 2.651376,-0.0689 c 0,0 -0.535523,-1.49887 -1.75987,-2.02179 c -0.880001,-0.37587 -1.866287,-0.15039 -2.358076,0.01 c 1.31978,-1.91773 2.711821,-4.20267 4.258016,-6.60499 c 0.292617,0.38843 1.422093,1.75668 3.02121,2.04288 c 1.866367,0.33399 3.652718,-0.93996 3.652718,-0.93996 c 0,0 -1.216803,-1.91906 -3.08318,-2.25307 c -1.438514,-0.25742 -2.832381,0.49617 -3.400164,0.85632 c 1.252433,-1.93718 2.601633,-3.93883 4.098406,-5.87551 c -1.931055,2.19594 -4.131307,4.8186 -6.137151,7.19562 c 0.248903,-0.77927 0.664057,-2.52974 0.01003,-4.10025 c -0.872627,-2.09401 -3.318071,-3.07033 -3.318071,-3.07033 z M 7.4563866,968.98314 c -0.1554961,0.15126 -0.3037511,0.30063 -0.4409691,0.44684 c -3.8740985,4.12629 -7.30098593,10.15104 -3.621051,14.55109 c 1.307181,1.56298 2.1671548,2.82946 2.810232,2.91848 c 0.6432057,0.0892 2.1163329,-0.54933 2.8118782,-1.21903 c 0.6955924,-0.66966 1.5972103,-2.13119 1.4176033,-2.72413 c -0.179519,-0.59284 -1.5891186,-1.65073 -2.1066075,-2.68116 c -1.5178575,-3.0227 0.336346,-6.28546 1.8266415,-8.19727 c 3.501391,-4.42497 13.602018,-10.19636 21.735515,-14.99364 c 5.864435,-3.45896 10.538667,-6.98701 15.336931,-11.28828 c 0.219965,0.44777 1.053532,1.96179 2.51591,2.47823 c 1.721442,0.60798 3.652768,-0.41292 3.652768,-0.41292 c 0,0 -0.894505,-1.92002 -2.615877,-2.52795 c -1.243285,-0.43907 -2.567669,-0.0725 -3.214122,0.16478 c 1.682533,-1.51915 3.381747,-3.13709 5.159211,-4.88142 c 0.297452,0.37136 2.207834,2.63871 4.789987,2.88612 c 2.810916,0.26932 5.326093,-1.99082 5.326093,-1.99082 c -8e-5,-7e-5 -2.055567,-2.54552 -4.866482,-2.81485 c -2.003337,-0.19194 -3.841949,0.82308 -4.737597,1.42432 c 1.863397,-1.83911 3.80667,-3.81565 5.909422,-5.97389 c -2.497724,2.21238 -5.331068,4.55455 -8.28453,6.86614 c 0.485399,-0.62064 1.444251,-2.06811 1.378018,-3.70558 c -0.08827,-2.18328 -1.972191,-3.87842 -1.972191,-3.87842 c 0,0 -1.84769,1.85103 -1.759379,4.03432 c 0.07975,1.97027 1.693908,3.52743 2.011412,3.81507 c -2.693916,2.09972 -5.47815,4.16979 -8.197193,6.08791 c 0.189522,-0.38937 0.411944,-1.01995 0.275084,-1.65003 c -0.221048,-1.01835 -1.296699,-1.64955 -1.296739,-1.6496 c 1.01e-4,1.1e-4 -0.666786,1.01395 -0.445647,2.03239 c 0.165036,0.76015 0.778509,1.30986 1.07867,1.54025 c -4.764069,3.3432 -9.293096,6.20375 -12.726732,7.90787 c -3.596816,1.7851 -16.927663,8.74848 -21.7502594,13.43518 z M 3.774197,985.27959 c -2.87279025,2.69716 -5.2808872,7.2199 -2.6303171,12.13563 c 5.1966949,1.94865 9.6724391,-3.06828 9.6724391,-3.06828 c 0,0 -4.5686995,5.52508 -9.1042175,4.00354 c 0.4002732,0.59956 0.8740811,1.20588 1.4390025,1.81182 c 6.2359608,6.6887 15.693532,13.6327 15.693573,13.6328 c 3.598145,3.8594 7.898169,7.53 11.340713,10.2766 c 4.095747,1.5092 8.102752,-1.1492 8.102752,-1.1492 c 0,0 -3.397384,2.6882 -6.451686,2.4507 c 6.87666,5.2978 17.646357,12.2588 17.646357,12.2588 c 0,0 1.900572,1.0313 4.803309,3.0346 c 2.73448,0.073 4.350058,-1.4472 4.350058,-1.4472 c 0,0 -1.550879,1.7647 -3.041784,2.3713 c 1.151232,0.8281 2.414288,1.7783 3.755403,2.8592 c 3.870607,3.1196 13.644046,7.3431 13.644046,7.3431 c -8.755355,-9.3911 -9.461381,-11.8918 -12.748508,-17.3343 c -2.603639,-4.3111 -5.79448,-8.2506 -7.566517,-10.3293 c -0.432678,1.5012 -1.640143,2.61 -1.640143,2.61 c 0,0 0.934517,-1.4347 1.00046,-3.3537 c -0.177685,-0.2034 -0.345129,-0.3934 -0.457935,-0.5199 c -0.553659,1.7629 -2.484404,3.8795 -2.484404,3.8795 c 0,0 1.918959,-2.538 1.716648,-5.0575 c -1.054486,-1.8355 -3.989231,-6.7968 -8.75693,-13.695 c -0.62899,2.2645 -2.886257,3.87 -2.886257,3.87 c 0,0 2.15402,-1.7632 2.247968,-4.7846 c -0.343755,-0.4926 -0.687169,-0.9886 -1.047815,-1.4976 c -1.060344,4.5402 -5.798513,7.5589 -5.798513,7.5589 c 0,0 4.468532,-3.3607 5.098174,-8.5496 c -4.5723,-6.37585 -9.075036,-11.35428 -10.513571,-12.90585 c -0.759039,1.39182 -2.508266,2.71365 -2.508266,2.71365 c 0,0 1.383967,-1.87793 1.915106,-3.46487 c -0.369333,-0.85892 -2.108891,-4.52329 -6.718365,-9.46746 C 17.122798,976.4003 11.226891,978.61148 9.5392959,979.99408 c 1.5994611,-0.50704 2.6714611,-0.98638 3.7346031,0.15397 c 1.165162,1.24976 -0.209212,4.42034 -2.896222,6.92544 c -2.6870095,2.50513 -5.8922467,3.75315 -7.1159365,2.40892 c -1.2238614,-1.34437 -0.3640471,-2.92258 0.5124484,-4.20282 z m 0.2833614,0.0931 c 0,0 -1.4424109,2.24319 -0.5218141,3.28255 c 0.9205547,1.03926 3.4575353,0.0636 5.2201347,-1.60624 c -3.1881717,1.56493 -3.8904647,0.91801 -4.4761789,0.29625 c -0.5857133,-0.62177 -0.2221417,-1.97256 -0.2221417,-1.97256 z"
         style="fill:#ffffff;fill-opacity:1;stroke:none"
         inkscape:connector-curvature="0" />
    </g>
  </g>
</svg>
